<?xml version="1.0" standalone="no"?>
<!DOCTYPE svg PUBLIC "-//W3C//DTD SVG 20010904//EN"
 "http://www.w3.org/TR/2001/REC-SVG-20010904/DTD/svg10.dtd">
<svg version="1.0" xmlns="http://www.w3.org/2000/svg"
 width="520.000000pt" height="520.000000pt" viewBox="0 0 520.000000 520.000000"
 preserveAspectRatio="xMidYMid meet">
<metadata>
Created by potrace 1.14, written by Peter Selinger 2001-2017
</metadata>
<g transform="translate(0.000000,520.000000) scale(0.100000,-0.100000)"
fill="#000000" stroke="none">
<path d="M212 4022 c-140 -50 -223 -188 -209 -349 16 -197 163 -320 366 -308
131 7 227 69 282 181 29 58 32 74 32 152 0 148 -61 255 -179 312 -68 33 -216
39 -292 12z"/>
<path d="M1708 3865 c-1 -1 -27 -6 -57 -9 -82 -10 -145 -41 -178 -89 l-28 -40
-1 -721 c-2 -686 -4 -773 -20 -863 -10 -59 -59 -155 -100 -196 -32 -31 -106
-76 -139 -84 -5 -1 -21 -5 -35 -8 -142 -35 -327 18 -393 112 -70 98 -70 94
-72 642 -2 465 -4 495 -21 508 -14 10 -85 13 -324 13 -280 0 -308 -2 -322 -17
-13 -16 -15 -79 -13 -483 2 -482 5 -532 46 -658 72 -219 236 -372 494 -460 64
-21 102 -31 150 -39 17 -2 48 -9 70 -14 45 -10 398 -6 460 6 172 32 403 134
504 224 23 20 38 18 61 -10 3 -4 32 -23 64 -44 76 -48 166 -89 264 -119 71
-23 100 -29 236 -55 85 -16 391 -13 491 4 294 52 558 214 703 433 19 28 38 52
41 52 3 0 58 -80 121 -177 128 -196 181 -258 255 -294 46 -22 61 -24 205 -24
150 0 157 1 212 28 32 16 75 45 96 65 91 89 343 535 502 887 12 28 33 73 45
100 30 65 127 312 156 396 35 102 30 108 -131 159 -73 23 -156 47 -186 53 -49
10 -56 9 -73 -8 -10 -11 -37 -78 -60 -150 -52 -161 -118 -343 -183 -500 -52
-125 -186 -408 -214 -450 -16 -25 -18 -23 -166 242 -82 148 -172 306 -199 351
-27 46 -49 85 -49 87 0 6 -163 281 -196 331 -43 64 -63 83 -111 100 -97 34
-246 -3 -384 -97 -102 -69 -149 -140 -149 -223 0 -36 13 -70 64 -168 73 -141
94 -208 94 -308 0 -173 -93 -334 -240 -417 -223 -126 -560 -104 -732 48 -77
68 -134 206 -139 338 -1 28 -5 51 -9 51 -4 0 -4 10 0 23 4 12 7 95 6 184 l-1
162 26 -10 c53 -21 127 -29 265 -30 223 -1 270 1 286 11 19 12 21 380 1 404
-7 8 -16 15 -19 14 -4 0 -131 0 -283 1 l-276 1 0 288 c-1 319 -4 339 -64 385
-49 36 -134 58 -248 62 -55 2 -101 2 -103 0z"/>
</g>
</svg>
